<?xml version="1.0" encoding="UTF-8" standalone="no"?>
<!DOCTYPE svg PUBLIC "-//W3C//DTD SVG 1.1//EN"
 "http://www.w3.org/Graphics/SVG/1.1/DTD/svg11.dtd">
<!-- Generated by graphviz version 2.28.0 (20120218.2227)
 -->
<!-- Title: G Pages: 1 -->
<svg width="845pt" height="780pt"
 viewBox="0.00 0.00 845.00 780.00" xmlns="http://www.w3.org/2000/svg" xmlns:xlink="http://www.w3.org/1999/xlink">
<g id="graph1" class="graph" transform="scale(1 1) rotate(0) translate(4 776)">
<title>G</title>
<polygon fill="white" stroke="white" points="-4,5 -4,-776 842,-776 842,5 -4,5"/>
<g id="graph2" class="cluster"><title>cluster_0</title>
<polygon fill="none" stroke="black" points="8,-8 8,-764 386,-764 386,-8 8,-8"/>
<text text-anchor="middle" x="197" y="-746" font-family="Times,serif" font-size="14.00">initializer</text>
</g>
<g id="graph3" class="cluster"><title>cluster_1</title>
<polygon fill="none" stroke="black" points="394,-106 394,-700 829,-700 829,-106 394,-106"/>
<text text-anchor="middle" x="611.5" y="-682" font-family="Times,serif" font-size="14.00">reader</text>
</g>
<!-- start0 -->
<g id="node1" class="node"><title>start0</title>
<ellipse fill="black" stroke="black" cx="279" cy="-730" rx="1.8" ry="1.8"/>
</g>
<!-- mmcs_init_wait -->
<g id="node10" class="node"><title>mmcs_init_wait</title>
<ellipse fill="none" stroke="black" cx="279" cy="-666" rx="72.8978" ry="18"/>
<text text-anchor="middle" x="279" y="-660.4" font-family="Times,serif" font-size="14.00">mmcs_init_wait</text>
</g>
<!-- start0&#45;&gt;mmcs_init_wait -->
<g id="edge5" class="edge"><title>start0&#45;&gt;mmcs_init_wait</title>
<path fill="none" stroke="black" d="M279,-727.924C279,-723.783 279,-708.398 279,-694.125"/>
<polygon fill="black" stroke="black" points="282.5,-694.106 279,-684.106 275.5,-694.106 282.5,-694.106"/>
</g>
<!-- start1 -->
<g id="node2" class="node"><title>start1</title>
<ellipse fill="black" stroke="black" cx="758" cy="-666" rx="1.8" ry="1.8"/>
</g>
<!-- mmcs_reset -->
<g id="node27" class="node"><title>mmcs_reset</title>
<ellipse fill="none" stroke="black" cx="758" cy="-592" rx="57.2427" ry="18"/>
<text text-anchor="middle" x="758" y="-586.4" font-family="Times,serif" font-size="14.00">mmcs_reset</text>
</g>
<!-- start1&#45;&gt;mmcs_reset -->
<g id="edge26" class="edge"><title>start1&#45;&gt;mmcs_reset</title>
<path fill="none" stroke="black" d="M758,-664.191C758,-659.826 758,-638.598 758,-620.449"/>
<polygon fill="black" stroke="black" points="761.5,-620.269 758,-610.269 754.5,-620.269 761.5,-620.269"/>
</g>
<!-- mmcs_ready -->
<g id="node3" class="node"><title>mmcs_ready</title>
<ellipse fill="none" stroke="black" cx="139" cy="-38" rx="60.0861" ry="18"/>
<ellipse fill="none" stroke="black" cx="139" cy="-38" rx="64.0668" ry="22"/>
<text text-anchor="middle" x="139" y="-32.4" font-family="Times,serif" font-size="14.00">mmcs_ready</text>
</g>
<!-- DUMMY_0 -->
<!-- DUMMY_1 -->
<!-- DUMMY_0&#45;&gt;DUMMY_1 -->
<g id="edge2" class="edge"><title>DUMMY_0&#45;&gt;DUMMY_1</title>
<path fill="none" stroke="black" d="M385.563,-709.523C387.073,-706.352 388.598,-703.094 390,-700 390.043,-699.904 390.087,-699.808 390.13,-699.712"/>
<polygon fill="black" stroke="black" points="393.364,-701.053 394.199,-690.491 386.96,-698.227 393.364,-701.053"/>
</g>
<!-- mmcs_error_initializer -->
<g id="node8" class="node"><title>mmcs_error_initializer</title>
<ellipse fill="none" stroke="black" cx="279" cy="-38" rx="57.5412" ry="18"/>
<text text-anchor="middle" x="279" y="-32.4" font-family="Times,serif" font-size="14.00">mmcs_error</text>
</g>
<!-- mmcs_error_initializer&#45;&gt;mmcs_error_initializer -->
<g id="edge23" class="edge"><title>mmcs_error_initializer&#45;&gt;mmcs_error_initializer</title>
<path fill="none" stroke="black" d="M328.766,-46.9648C343.014,-46.6133 354,-43.625 354,-38 354,-33.8252 347.948,-31.1028 339.003,-29.8328"/>
<polygon fill="black" stroke="black" points="339.007,-26.3227 328.766,-29.0352 338.464,-33.3015 339.007,-26.3227"/>
</g>
<!-- mmcs_init_wait&#45;&gt;mmcs_init_wait -->
<g id="edge17" class="edge"><title>mmcs_init_wait&#45;&gt;mmcs_init_wait</title>
<path fill="none" stroke="black" d="M347.653,-672.427C360.743,-671.658 370,-669.516 370,-666 370,-663.473 365.218,-661.656 357.667,-660.548"/>
<polygon fill="black" stroke="black" points="357.945,-657.058 347.653,-659.573 357.267,-664.025 357.945,-657.058"/>
</g>
<!-- mmcs_cmd0 -->
<g id="node11" class="node"><title>mmcs_cmd0</title>
<ellipse fill="none" stroke="black" cx="279" cy="-592" rx="60.0809" ry="18"/>
<text text-anchor="middle" x="279" y="-586.4" font-family="Times,serif" font-size="14.00">mmcs_cmd0</text>
</g>
<!-- mmcs_init_wait&#45;&gt;mmcs_cmd0 -->
<g id="edge6" class="edge"><title>mmcs_init_wait&#45;&gt;mmcs_cmd0</title>
<path fill="none" stroke="black" d="M279,-647.937C279,-639.807 279,-629.876 279,-620.705"/>
<polygon fill="black" stroke="black" points="282.5,-620.441 279,-610.441 275.5,-620.441 282.5,-620.441"/>
</g>
<!-- mmcs_cmd0_response -->
<g id="node12" class="node"><title>mmcs_cmd0_response</title>
<ellipse fill="none" stroke="black" cx="279" cy="-518" rx="99.0079" ry="18"/>
<text text-anchor="middle" x="279" y="-512.4" font-family="Times,serif" font-size="14.00">mmcs_cmd0_response</text>
</g>
<!-- mmcs_cmd0&#45;&gt;mmcs_cmd0_response -->
<g id="edge7" class="edge"><title>mmcs_cmd0&#45;&gt;mmcs_cmd0_response</title>
<path fill="none" stroke="black" d="M279,-573.937C279,-565.807 279,-555.876 279,-546.705"/>
<polygon fill="black" stroke="black" points="282.5,-546.441 279,-536.441 275.5,-546.441 282.5,-546.441"/>
</g>
<!-- mmcs_cmd0_response&#45;&gt;mmcs_error_initializer -->
<g id="edge19" class="edge"><title>mmcs_cmd0_response&#45;&gt;mmcs_error_initializer</title>
<path fill="none" stroke="black" d="M279,-499.834C279,-485.247 279,-463.75 279,-445 279,-445 279,-445 279,-131 279,-109.338 279,-84.8077 279,-66.5273"/>
<polygon fill="black" stroke="black" points="282.5,-66.2953 279,-56.2954 275.5,-66.2954 282.5,-66.2953"/>
<text text-anchor="middle" x="292.6" y="-274.4" font-family="Times,serif" font-size="14.00">error</text>
</g>
<!-- mmcs_cmd1 -->
<g id="node13" class="node"><title>mmcs_cmd1</title>
<ellipse fill="none" stroke="black" cx="142" cy="-444" rx="60.0809" ry="18"/>
<text text-anchor="middle" x="142" y="-438.4" font-family="Times,serif" font-size="14.00">mmcs_cmd1</text>
</g>
<!-- mmcs_cmd0_response&#45;&gt;mmcs_cmd1 -->
<g id="edge8" class="edge"><title>mmcs_cmd0_response&#45;&gt;mmcs_cmd1</title>
<path fill="none" stroke="black" d="M248.255,-500.842C227.96,-490.176 201.235,-476.131 179.665,-464.795"/>
<polygon fill="black" stroke="black" points="181.251,-461.674 170.771,-460.12 177.994,-467.871 181.251,-461.674"/>
</g>
<!-- mmcs_cmd1_wait -->
<g id="node14" class="node"><title>mmcs_cmd1_wait</title>
<ellipse fill="none" stroke="black" cx="142" cy="-370" rx="81.2634" ry="18"/>
<text text-anchor="middle" x="142" y="-364.4" font-family="Times,serif" font-size="14.00">mmcs_cmd1_wait</text>
</g>
<!-- mmcs_cmd1&#45;&gt;mmcs_cmd1_wait -->
<g id="edge9" class="edge"><title>mmcs_cmd1&#45;&gt;mmcs_cmd1_wait</title>
<path fill="none" stroke="black" d="M142,-425.937C142,-417.807 142,-407.876 142,-398.705"/>
<polygon fill="black" stroke="black" points="145.5,-398.441 142,-388.441 138.5,-398.441 145.5,-398.441"/>
</g>
<!-- mmcs_cmd16_prepare -->
<g id="node15" class="node"><title>mmcs_cmd16_prepare</title>
<ellipse fill="none" stroke="black" cx="142" cy="-280" rx="98.4867" ry="18"/>
<text text-anchor="middle" x="142" y="-274.4" font-family="Times,serif" font-size="14.00">mmcs_cmd16_prepare</text>
</g>
<!-- mmcs_cmd1_wait&#45;&gt;mmcs_cmd16_prepare -->
<g id="edge10" class="edge"><title>mmcs_cmd1_wait&#45;&gt;mmcs_cmd16_prepare</title>
<path fill="none" stroke="black" d="M142,-351.614C142,-339.24 142,-322.369 142,-308.22"/>
<polygon fill="black" stroke="black" points="145.5,-308.05 142,-298.05 138.5,-308.05 145.5,-308.05"/>
</g>
<!-- mmcs_cmd16 -->
<g id="node16" class="node"><title>mmcs_cmd16</title>
<ellipse fill="none" stroke="black" cx="142" cy="-206" rx="65.3234" ry="18"/>
<text text-anchor="middle" x="142" y="-200.4" font-family="Times,serif" font-size="14.00">mmcs_cmd16</text>
</g>
<!-- mmcs_cmd16_prepare&#45;&gt;mmcs_cmd16 -->
<g id="edge11" class="edge"><title>mmcs_cmd16_prepare&#45;&gt;mmcs_cmd16</title>
<path fill="none" stroke="black" d="M142,-261.937C142,-253.807 142,-243.876 142,-234.705"/>
<polygon fill="black" stroke="black" points="145.5,-234.441 142,-224.441 138.5,-234.441 145.5,-234.441"/>
</g>
<!-- mmcs_cmd16_response -->
<g id="node17" class="node"><title>mmcs_cmd16_response</title>
<ellipse fill="none" stroke="black" cx="142" cy="-132" rx="103.251" ry="18"/>
<text text-anchor="middle" x="142" y="-126.4" font-family="Times,serif" font-size="14.00">mmcs_cmd16_response</text>
</g>
<!-- mmcs_cmd16&#45;&gt;mmcs_cmd16_response -->
<g id="edge12" class="edge"><title>mmcs_cmd16&#45;&gt;mmcs_cmd16_response</title>
<path fill="none" stroke="black" d="M142,-187.937C142,-179.807 142,-169.876 142,-160.705"/>
<polygon fill="black" stroke="black" points="145.5,-160.441 142,-150.441 138.5,-160.441 145.5,-160.441"/>
</g>
<!-- mmcs_cmd16_response&#45;&gt;mmcs_ready -->
<g id="edge13" class="edge"><title>mmcs_cmd16_response&#45;&gt;mmcs_ready</title>
<path fill="none" stroke="black" d="M141.436,-113.696C141.037,-101.465 140.491,-84.7287 140.017,-70.1979"/>
<polygon fill="black" stroke="black" points="143.512,-69.9836 139.688,-60.1031 136.516,-70.2118 143.512,-69.9836"/>
</g>
<!-- mmcs_cmd16_response&#45;&gt;mmcs_error_initializer -->
<g id="edge15" class="edge"><title>mmcs_cmd16_response&#45;&gt;mmcs_error_initializer</title>
<path fill="none" stroke="black" d="M166.81,-114.339C189.335,-99.213 222.678,-76.8219 247.162,-60.3801"/>
<polygon fill="black" stroke="black" points="249.395,-63.0969 255.745,-54.6163 245.492,-57.2857 249.395,-63.0969"/>
<text text-anchor="middle" x="232.6" y="-81.4" font-family="Times,serif" font-size="14.00">error</text>
</g>
<!-- mmc_cmd_wait -->
<g id="node21" class="node"><title>mmc_cmd_wait</title>
<ellipse fill="none" stroke="black" cx="89" cy="-518" rx="72.8837" ry="18"/>
<text text-anchor="middle" x="89" y="-512.4" font-family="Times,serif" font-size="14.00">mmc_cmd_wait</text>
</g>
<!-- mmc_cmd_wait&#45;&gt;mmcs_cmd1 -->
<g id="edge21" class="edge"><title>mmc_cmd_wait&#45;&gt;mmcs_cmd1</title>
<path fill="none" stroke="black" d="M101.56,-499.937C108.095,-491.06 116.21,-480.035 123.452,-470.197"/>
<polygon fill="black" stroke="black" points="126.42,-472.069 129.53,-461.941 120.783,-467.919 126.42,-472.069"/>
</g>
<!-- mmcs_error_reader -->
<g id="node25" class="node"><title>mmcs_error_reader</title>
<ellipse fill="none" stroke="black" cx="460" cy="-280" rx="57.5412" ry="18"/>
<text text-anchor="middle" x="460" y="-274.4" font-family="Times,serif" font-size="14.00">mmcs_error</text>
</g>
<!-- mmcs_error_reader&#45;&gt;mmcs_error_reader -->
<g id="edge41" class="edge"><title>mmcs_error_reader&#45;&gt;mmcs_error_reader</title>
<path fill="none" stroke="black" d="M513.596,-286.601C525.936,-286.032 535,-283.832 535,-280 535,-277.306 530.519,-275.418 523.568,-274.337"/>
<polygon fill="black" stroke="black" points="523.88,-270.851 513.596,-273.399 523.224,-277.82 523.88,-270.851"/>
</g>
<!-- mmcs_wait -->
<g id="node28" class="node"><title>mmcs_wait</title>
<ellipse fill="none" stroke="black" cx="758" cy="-518" rx="55.3374" ry="18"/>
<text text-anchor="middle" x="758" y="-512.4" font-family="Times,serif" font-size="14.00">mmcs_wait</text>
</g>
<!-- mmcs_reset&#45;&gt;mmcs_wait -->
<g id="edge27" class="edge"><title>mmcs_reset&#45;&gt;mmcs_wait</title>
<path fill="none" stroke="black" d="M752.16,-573.937C751.275,-565.598 751.036,-555.364 751.441,-545.998"/>
<polygon fill="black" stroke="black" points="754.938,-546.168 752.173,-535.941 747.956,-545.66 754.938,-546.168"/>
</g>
<!-- mmcs_wait&#45;&gt;mmcs_reset -->
<g id="edge39" class="edge"><title>mmcs_wait&#45;&gt;mmcs_reset</title>
<path fill="none" stroke="black" d="M763.827,-535.941C764.718,-544.261 764.964,-554.49 764.565,-563.864"/>
<polygon fill="black" stroke="black" points="761.067,-563.712 763.84,-573.937 768.049,-564.214 761.067,-563.712"/>
</g>
<!-- mmcs_cmd17 -->
<g id="node29" class="node"><title>mmcs_cmd17</title>
<ellipse fill="none" stroke="black" cx="686" cy="-444" rx="65.3234" ry="18"/>
<text text-anchor="middle" x="686" y="-438.4" font-family="Times,serif" font-size="14.00">mmcs_cmd17</text>
</g>
<!-- mmcs_wait&#45;&gt;mmcs_cmd17 -->
<g id="edge28" class="edge"><title>mmcs_wait&#45;&gt;mmcs_cmd17</title>
<path fill="none" stroke="black" d="M741.662,-500.662C732.314,-491.314 720.414,-479.414 710.018,-469.018"/>
<polygon fill="black" stroke="black" points="712.319,-466.369 702.773,-461.773 707.369,-471.319 712.319,-466.369"/>
</g>
<!-- mmcs_receive_rt -->
<g id="node30" class="node"><title>mmcs_receive_rt</title>
<ellipse fill="none" stroke="black" cx="668" cy="-370" rx="77.2975" ry="18"/>
<text text-anchor="middle" x="668" y="-364.4" font-family="Times,serif" font-size="14.00">mmcs_receive_rt</text>
</g>
<!-- mmcs_cmd17&#45;&gt;mmcs_receive_rt -->
<g id="edge29" class="edge"><title>mmcs_cmd17&#45;&gt;mmcs_receive_rt</title>
<path fill="none" stroke="black" d="M681.734,-425.937C679.68,-417.719 677.165,-407.66 674.851,-398.406"/>
<polygon fill="black" stroke="black" points="678.181,-397.293 672.36,-388.441 671.39,-398.991 678.181,-397.293"/>
</g>
<!-- mmcs_receive_rt&#45;&gt;mmcs_error_reader -->
<g id="edge37" class="edge"><title>mmcs_receive_rt&#45;&gt;mmcs_error_reader</title>
<path fill="none" stroke="black" d="M632.244,-353.872C596.158,-338.605 540.447,-315.035 502.214,-298.86"/>
<polygon fill="black" stroke="black" points="503.466,-295.589 492.893,-294.916 500.739,-302.036 503.466,-295.589"/>
<text text-anchor="middle" x="595.6" y="-319.4" font-family="Times,serif" font-size="14.00">error</text>
</g>
<!-- mmcs_wait_for_start_byte -->
<g id="node31" class="node"><title>mmcs_wait_for_start_byte</title>
<ellipse fill="none" stroke="black" cx="668" cy="-280" rx="114.334" ry="18"/>
<text text-anchor="middle" x="668" y="-274.4" font-family="Times,serif" font-size="14.00">mmcs_wait_for_start_byte</text>
</g>
<!-- mmcs_receive_rt&#45;&gt;mmcs_wait_for_start_byte -->
<g id="edge30" class="edge"><title>mmcs_receive_rt&#45;&gt;mmcs_wait_for_start_byte</title>
<path fill="none" stroke="black" d="M668,-351.614C668,-339.24 668,-322.369 668,-308.22"/>
<polygon fill="black" stroke="black" points="671.5,-308.05 668,-298.05 664.5,-308.05 671.5,-308.05"/>
</g>
<!-- mmcs_wait_for_start_byte&#45;&gt;mmcs_wait_for_start_byte -->
<g id="edge35" class="edge"><title>mmcs_wait_for_start_byte&#45;&gt;mmcs_wait_for_start_byte</title>
<path fill="none" stroke="black" d="M775.984,-285.97C790.412,-284.961 800,-282.971 800,-280 800,-277.795 794.719,-276.13 786.097,-275.006"/>
<polygon fill="black" stroke="black" points="786.274,-271.507 775.984,-274.03 785.601,-278.474 786.274,-271.507"/>
</g>
<!-- mmcs_receive_segments -->
<g id="node32" class="node"><title>mmcs_receive_segments</title>
<ellipse fill="none" stroke="black" cx="687" cy="-206" rx="107.359" ry="18"/>
<text text-anchor="middle" x="687" y="-200.4" font-family="Times,serif" font-size="14.00">mmcs_receive_segments</text>
</g>
<!-- mmcs_wait_for_start_byte&#45;&gt;mmcs_receive_segments -->
<g id="edge31" class="edge"><title>mmcs_wait_for_start_byte&#45;&gt;mmcs_receive_segments</title>
<path fill="none" stroke="black" d="M672.503,-261.937C674.671,-253.719 677.326,-243.66 679.768,-234.406"/>
<polygon fill="black" stroke="black" points="683.23,-235.003 682.398,-224.441 676.462,-233.217 683.23,-235.003"/>
</g>
<!-- mmcs_receive_crc -->
<g id="node33" class="node"><title>mmcs_receive_crc</title>
<ellipse fill="none" stroke="black" cx="725" cy="-132" rx="83.132" ry="18"/>
<text text-anchor="middle" x="725" y="-126.4" font-family="Times,serif" font-size="14.00">mmcs_receive_crc</text>
</g>
<!-- mmcs_receive_segments&#45;&gt;mmcs_receive_crc -->
<g id="edge32" class="edge"><title>mmcs_receive_segments&#45;&gt;mmcs_receive_crc</title>
<path fill="none" stroke="black" d="M696.005,-187.937C700.596,-179.239 706.274,-168.48 711.386,-158.795"/>
<polygon fill="black" stroke="black" points="714.487,-160.418 716.059,-149.941 708.296,-157.151 714.487,-160.418"/>
</g>
<!-- mmcs_receive_crc&#45;&gt;mmcs_wait -->
<g id="edge33" class="edge"><title>mmcs_receive_crc&#45;&gt;mmcs_wait</title>
<path fill="none" stroke="black" d="M768.885,-147.451C793.777,-158.705 820,-177.166 820,-205 820,-445 820,-445 820,-445 820,-465.182 805.84,-482.518 791.053,-495.119"/>
<polygon fill="black" stroke="black" points="788.518,-492.662 782.861,-501.62 792.869,-498.146 788.518,-492.662"/>
</g>
</g>
</svg>
